<svg xmlns="http://www.w3.org/2000/svg" viewBox="0 0 128 128"><defs><style>.cls-2{fill:#ece6d4}.cls-3{clip-path:url(#clip-path)}.cls-4{fill:#d4cbb2}.cls-11{fill:#fffffd}.cls-15,.cls-17{fill:#95a8a5}.cls-15,.cls-16{opacity:.5}.cls-20{fill:#759eac}</style><clipPath id="clip-path"><path d="M128 51.92V128H48.64l-27.33-27.33V33.56h.08a2.59 2.59 0 0 1-.08-.63A2.89 2.89 0 0 1 24.15 30h82z" fill="none"/></clipPath></defs><g id="レイヤー_2" data-name="レイヤー 2"><g id="_6" data-name="6"><circle class="cls-2" cx="64" cy="64" r="64"/><g class="cls-3"><circle class="cls-2" cx="64" cy="64" r="64"/></g><g class="cls-3"><circle class="cls-4" cx="64" cy="64" r="64"/><circle class="cls-4" cx="64" cy="64" r="64"/></g><path d="M107.23 31v68.69H20.81V31.61h.08a2.33 2.33 0 0 1-.08-.59 2.71 2.71 0 0 1 2.71-2.71h81a2.71 2.71 0 0 1 2.71 2.69z" fill="#50555b"/><path fill="#fff" d="M22.34 38.9h83.32v59H22.34z"/><path fill="#191919" opacity=".06" d="M22.34 38.9h83.32v3.51H22.34z"/><path fill="#f9ccae" d="M98.85 47.9v10.47h-7.03l-6.99 6.44-11.47-10.55-6.42 5.91h-6V47.9h37.91z"/><path fill="#f4a891" d="M98.85 58.37v11.68H60.94v-9.88h6l6.42-5.91 11.47 10.55 6.99-6.44h7.03z"/><path fill="#fbfad5" d="M98.85 57.76v1.34h-6.69l-7.32 6.71-11.5-10.54-6.14 5.63h-6.26v-1.35h5.65l6.75-6.18 11.5 10.54 6.71-6.15h7.3z"/><ellipse class="cls-11" cx="73.53" cy="54.8" rx="1.35" ry="1.32"/><path class="cls-11" d="M93.17 58.37a1.35 1.35 0 1 1-1.35-1.31 1.34 1.34 0 0 1 1.35 1.31z"/><ellipse class="cls-11" cx="84.81" cy="64.76" rx="1.35" ry="1.32"/><ellipse class="cls-11" cx="67.08" cy="59.8" rx="1.35" ry="1.32"/><path d="M42 36a2.18 2.18 0 1 1 2-2.18A2.12 2.12 0 0 1 42 36z" fill="#97cb78"/><ellipse cx="34.56" cy="33.81" rx="2.05" ry="2.18" fill="#f7e778"/><ellipse cx="27.1" cy="33.81" rx="2.05" ry="2.18" fill="#eb6d81"/><path class="cls-15" d="M29.84 79.91h12.94v10.81H29.84z"/><g class="cls-16"><path class="cls-17" d="M44.84 88.48h8.65v1.49h-8.65zm0-8.13h17.87v1.56H44.84zm0 4.05h17.87v1.56H44.84z"/></g><path class="cls-15" d="M66.66 79.91H79.6v10.81H66.66z"/><g class="cls-16"><path class="cls-17" d="M81.66 88.48h8.65v1.49h-8.65zm0-8.13h17.87v1.56H81.66zm0 4.05h17.87v1.56H81.66z"/></g><path d="M55.59 57.2a14.67 14.67 0 0 0-3.37-6.46A14.46 14.46 0 0 0 46 46.65c-.26-.09-.51-.17-.78-.24a14.48 14.48 0 0 0-6.88-.2 14.78 14.78 0 0 0-7 3.63l10.79 10.89 13.32 3.64a14.42 14.42 0 0 0 .14-7.17z" fill="#f4a24c"/><path d="M55.45 64.37a14.42 14.42 0 0 0 .14-7.17l-13.46 3.53 9.79 9.89a14.49 14.49 0 0 0 3.53-6.25z" fill="#f1ef84"/><path class="cls-20" d="M37.49 74.62a14.55 14.55 0 0 1-6-3.28h-.05a14.63 14.63 0 0 1-.11-21.45l10.8 10.84-3.85 14.09c-.28-.06-.53-.12-.79-.2z"/><path d="M38.28 74.82a14.52 14.52 0 0 0 7.45-.35h.07a14.6 14.6 0 0 0 6.12-3.82l-9.74-9.84v.07L31.51 71.34a14.55 14.55 0 0 0 6 3.28c.24.08.49.14.77.2z" fill="#85cdd9"/><path fill="#8fd1da" d="M93.3 71.7h5.56v3.43H93.3z"/><path fill="#eff09a" d="M86.16 71.7h5.56v3.43h-5.56z"/><path fill="#f2b47d" d="M79.03 71.7h5.56v3.43h-5.56z"/><path class="cls-20" d="M71.9 71.7h5.56v3.43H71.9z"/></g></g></svg>