<svg xmlns="http://www.w3.org/2000/svg" viewBox="0 0 128 128"><defs><style>.cls-2{fill:#99d4d9}.cls-3{clip-path:url(#clip-path)}.cls-4{fill:#86bdbc}.cls-8{fill:#727171}</style><clipPath id="clip-path"><path fill="none" d="M128 55.76V128H71.68L37.76 94.08l38.96-24.36 32.63-32.61L128 55.76z"/></clipPath></defs><g id="レイヤー_2" data-name="レイヤー 2"><g id="_6" data-name="6"><circle class="cls-2" cx="64" cy="64" r="64"/><g class="cls-3"><circle class="cls-2" cx="64" cy="64" r="64"/></g><g class="cls-3"><circle class="cls-4" cx="64" cy="64" r="64"/><circle class="cls-4" cx="64" cy="64" r="64"/></g><path d="M109.35 37.1C77.6 31.43 64 12.16 64 12.16S50.39 31.43 18.65 37.1c0 12.47-1.14 53.9 45.35 74.26C110.49 91 109.35 49.57 109.35 37.1z" fill="#838384"/><path d="M64 102.62c-33-16-36.9-43.88-37.36-59.11C45.11 38.9 57.27 30.09 64 23.83c6.73 6.26 18.88 15.07 37.36 19.68C100.9 58.74 97 86.58 64 102.62z" fill="#f1f2f1"/><path d="M98.14 45.07c-.35 13.75-3.7 39.48-34.14 54.18a67 67 0 0 1-14.26-9.15 54.12 54.12 0 0 1-12.07-14.39c-6.46-11.27-7.62-22.87-7.82-30.64C46.94 40.9 58 32.71 64 27.07a69.81 69.81 0 0 0 12.81 9.5 79.86 79.86 0 0 0 18.66 7.8c.87.25 1.77.48 2.67.7z" fill="#f0c57b"/><path class="cls-8" d="M64 27.07c-6 5.64-17.06 13.83-34.15 18a74.21 74.21 0 0 0 2.28 17H64z"/><path d="M95.47 44.37a79.86 79.86 0 0 1-18.66-7.8A69.81 69.81 0 0 1 64 27.07v35h31.87a73 73 0 0 0 2.27-17c-.9-.22-1.8-.45-2.67-.7zM32.13 62.05a56.52 56.52 0 0 0 5.54 13.66A54.12 54.12 0 0 0 49.74 90.1 67 67 0 0 0 64 99.25v-37.2z" fill="#f4e228" opacity=".26"/><path class="cls-8" d="M64 99.25c20.25-9.78 28.51-24.44 31.87-37.2H64z"/><path d="M64 12.16s13.6 19.27 45.35 24.94c0 12.47 1.14 53.86-45.35 74.26z" fill="#231815" opacity=".08"/></g></g></svg>