<svg xmlns="http://www.w3.org/2000/svg" viewBox="0 0 128 128"><defs><style>.cls-5{fill:#cd6175}.cls-7{fill:#b3b2b6}</style><clipPath id="clip-path"><path fill="none" d="M128 51.84V128H63.23L23.91 88.68l-3.66-3.66V61.8l3.9-3.91 1.39-1.38 4.36-4.36 9.86-9.86 4.57-4.57.97-.97 3.74-3.74 5.01-5.02h50.1L128 51.84z"/></clipPath></defs><g id="レイヤー_2" data-name="レイヤー 2"><g id="_1" data-name="1"><circle cx="64" cy="64" r="64" fill="#e67a85"/><circle cx="64" cy="64" r="64" fill="#e38a96"/><g clip-path="url(#clip-path)"><circle class="cls-5" cx="64" cy="64" r="64"/><circle class="cls-5" cx="64" cy="64" r="64"/></g><path fill="#c3c2c6" d="M78.29 97.42H49.71l1.01-21.45h26.56l1.01 21.45z"/><path class="cls-7" d="M77.92 90.42H50.08l.64-13.56h26.56l.64 13.56z"/><path d="M45 95.63h38a4.39 4.39 0 0 1 4.4 4.37H40.6a4.39 4.39 0 0 1 4.4-4.37zm62.75-35.79v26.89a1.94 1.94 0 0 1-1.93 2H22.18a1.94 1.94 0 0 1-1.93-2V59.84a1.94 1.94 0 0 1 1.93-2h83.64a1.94 1.94 0 0 1 1.93 2z" fill="#c9c8cd"/><path d="M107.75 30.53v49h-87.5v-49h.06A3.19 3.19 0 0 1 23.42 28h81.16a3.19 3.19 0 0 1 3.11 2.54z" fill="#2d2d33"/><path fill="#f4f4f5" d="M25.53 33.01h76.93v41.51H25.53z"/><path class="cls-7" d="M29.91 42.3h20.85v10.19H29.91zm23.98 0h20.85v10.19H53.89zm23.98 0h20.85v10.19H77.87zM29.91 54.12h11.92v1.94H29.91zm5.11-17.37h11.92v.97H35.02zm-5.11 31.32h11.92v1.94H29.91zm0-10.82h21v1.94h-21zm0 3.6h21v1.94h-21zm0 3.6h21v1.94h-21zm24.35-10.33h11.92v1.94H54.26zm0 13.95h11.92v1.94H54.26zm0-10.82h21v1.94h-21zm0 3.6h21v1.94h-21zm0 3.6h21v1.94h-21zm23.59-10.33h11.92v1.94H77.85zm0 13.95h11.92v1.94H77.85zm0-10.82h21v1.94h-21zm0 3.6h21v1.94h-21zm0 3.6h21v1.94h-21zM32.69 36.21a1.44 1.44 0 0 1 0 2 1.45 1.45 0 0 1-2 0 1.44 1.44 0 0 1 0-2 1.45 1.45 0 0 1 2 0z"/><path class="cls-7" transform="rotate(-135 93.918 37.233)" d="M93.23 36.55h1.37v1.37h-1.37z"/><path class="cls-7" transform="rotate(-135 97.232 37.23)" d="M96.55 36.55h1.37v1.37h-1.37z"/><path class="cls-7" transform="rotate(-135 90.977 37.232)" d="M90.29 36.55h1.37v1.37h-1.37z"/></g></g></svg>